<?xml version="1.0" encoding="utf-8"?><svg version="1.1" id="Layer_1" xmlns="http://www.w3.org/2000/svg" xmlns:xlink="http://www.w3.org/1999/xlink" x="0px" y="0px" viewBox="0 0 83.69 122.88" style="enable-background:new 0 0 83.69 122.88" xml:space="preserve"><g><path d="M9.24,11.3l5.89,12.31c4.65-4.09,9.16-6.01,11.76-6.89l-5.4-11.38l-0.01-0.02l0,0c-0.3-0.62-0.83-1.06-1.45-1.27 c-0.63-0.21-1.33-0.2-1.97,0.1l-0.02,0.01l0,0l-7.62,3.71C9.78,8.19,9.34,8.72,9.13,9.33C8.91,9.95,8.93,10.66,9.24,11.3L9.24,11.3 z M77.89,7.08c0.25,0.2,0.45,0.46,0.59,0.78c1.48,3.59,2.11,8.08,2.11,12.81c0,5.08-0.72,10.5-1.89,15.4c3.19,5.9,5,12.64,5,19.79 v57.4c0,2.65-1.08,5.06-2.83,6.8c-1.74,1.74-4.15,2.83-6.8,2.83H9.58c-2.64,0-5.03-1.08-6.76-2.81C1.08,118.33,0,115.94,0,113.3 V55.85c0-7.18,1.83-13.94,5.04-19.86c-1.06-4.23-1.57-8.99-1.57-13.67c0-5.03,0.59-10.01,1.73-14.22c0.11-0.42,0.36-0.78,0.67-1.03 c0.62-1.14,1.58-2.1,2.82-2.71l7.62-3.71l0,0c0.02-0.01,0.04-0.02,0.06-0.03c1.59-0.75,3.35-0.8,4.9-0.27 c1.56,0.54,2.92,1.66,3.7,3.26l0,0c0.01,0.02,0.02,0.04,0.03,0.06l5.63,11.87c3.57-1,7.33-1.53,11.21-1.53l0,0 c3.9,0,7.68,0.54,11.27,1.55l5.64-11.88l0.02-0.03l0.01-0.02l0-0.01l0,0c0.78-1.59,2.14-2.72,3.7-3.26 c1.55-0.53,3.31-0.48,4.9,0.27c0.02,0.01,0.04,0.02,0.06,0.03l0,0l7.62,3.71C76.31,4.97,77.27,5.94,77.89,7.08L77.89,7.08z M8.06,31.23c1.24-1.7,2.61-3.3,4.09-4.79l-4.53-9.47c-0.16,1.75-0.24,3.55-0.24,5.35C7.39,25.34,7.61,28.37,8.06,31.23L8.06,31.23 z M75.69,31.31c0.62-3.5,0.98-7.15,0.98-10.64c0-1.51-0.07-2.97-0.21-4.38l-4.87,10.19C73.07,27.98,74.44,29.6,75.69,31.31 L75.69,31.31z M54.07,19.95l-0.08-0.02c-0.03-0.01-0.06-0.02-0.08-0.02c-0.23-0.06-0.39-0.11-0.57-0.2l-0.01,0 c-3.62-1.16-7.48-1.78-11.47-1.78l0,0c-3.93,0-7.72,0.61-11.3,1.73c-0.04,0.02-0.08,0.04-0.12,0.06c-0.18,0.08-0.34,0.13-0.57,0.2 c-0.03,0.01-0.06,0.02-0.08,0.02c-0.11,0.03-0.25,0.07-0.41,0.11c-5.43,1.91-10.31,5.02-14.31,9.02 C8.18,35.94,3.91,45.42,3.91,55.85v57.45c0,1.55,0.64,2.97,1.66,4c1.03,1.03,2.44,1.66,4,1.66h64.49c1.57,0,3-0.64,4.03-1.68 c1.04-1.04,1.68-2.46,1.68-4.03v-57.4c0-10.43-4.27-19.91-11.14-26.79C64.57,25,59.6,21.85,54.07,19.95L54.07,19.95z M68.64,23.61 l5.89-12.31c0.31-0.64,0.33-1.35,0.11-1.97c-0.21-0.61-0.65-1.14-1.28-1.45l-7.62-3.71l0,0l-0.02-0.01 c-0.63-0.3-1.34-0.32-1.97-0.1c-0.62,0.21-1.15,0.65-1.45,1.27l0,0l-0.01,0.01l0,0.01l-5.4,11.38 C59.48,17.6,63.99,19.52,68.64,23.61L68.64,23.61z M12.32,52.99c-0.28,1.04-1.35,1.65-2.39,1.37C8.89,54.07,8.27,53,8.56,51.96 c3-10.89,9-18.21,16.26-22.42c5.52-3.2,11.76-4.58,17.95-4.35c6.17,0.23,12.29,2.07,17.61,5.3c7.5,4.57,13.42,11.93,15.62,21.52 c0.24,1.05-0.42,2.1-1.47,2.34c-1.05,0.24-2.1-0.42-2.34-1.47C70.24,44.4,65,37.88,58.34,33.82c-4.75-2.89-10.21-4.53-15.71-4.74 c-5.48-0.2-10.99,1.01-15.85,3.83C20.35,36.64,15.01,43.19,12.32,52.99L12.32,52.99z M20.58,66.06h42.75c2.69,0,5.14,1.1,6.91,2.87 c1.77,1.77,2.87,4.22,2.87,6.91v26.24c0,2.69-1.1,5.14-2.87,6.91c-1.77,1.77-4.22,2.87-6.91,2.87H20.58c-2.69,0-5.14-1.1-6.91-2.87 c-1.77-1.77-2.87-4.22-2.87-6.91V75.85c0-2.69,1.1-5.14,2.87-6.91C15.44,67.16,17.89,66.06,20.58,66.06L20.58,66.06z M28.72,50.45 H55.8c1.27,0,2.31,1.04,2.31,2.31v6.33c0,1.27-1.04,2.31-2.31,2.31H28.72c-1.27,0-2.31-1.04-2.31-2.31v-6.33 C26.41,51.49,27.45,50.45,28.72,50.45L28.72,50.45z M24.21,84.79v5.98c0,1.02-0.83,1.85-1.85,1.85h0c-1.02,0-1.85-0.83-1.85-1.85 v-5.98h-5.81v17.3c0,1.61,0.66,3.08,1.73,4.15c1.07,1.07,2.53,1.73,4.15,1.73h42.75c1.61,0,3.08-0.66,4.15-1.73 c1.07-1.07,1.73-2.53,1.73-4.15v-17.3H24.21L24.21,84.79z M14.71,80.88H69.2v-5.03c0-1.61-0.66-3.08-1.73-4.15 c-1.06-1.07-2.53-1.73-4.15-1.73H20.58c-1.61,0-3.08,0.66-4.15,1.73c-1.06,1.06-1.73,2.53-1.73,4.15V80.88L14.71,80.88z"/></g></svg>